<svg width="1577" height="256" viewBox="0 0 1577 256" fill="none" xmlns="http://www.w3.org/2000/svg">
<path d="M113.15 0.162979C128.506 0.162979 142.35 2.48965 154.681 7.14299C167.012 11.7963 178.529 18.66 189.232 27.734L158.869 63.681C151.656 58.3297 144.676 54.258 137.929 51.466C131.182 48.674 123.969 47.278 116.291 47.278C100.935 47.278 88.9527 53.909 80.344 67.171C71.7353 80.433 67.431 100.442 67.431 127.199C67.431 153.956 71.7353 173.849 80.344 186.878C89.1853 199.907 101.4 206.422 116.989 206.422C125.365 206.422 133.043 204.793 140.023 201.536C147.236 198.046 155.03 193.044 163.406 186.529L192.024 222.825C182.485 232.364 170.968 240.159 157.473 246.208C144.211 252.257 129.786 255.282 114.197 255.282C91.163 255.282 71.0373 250.396 53.82 240.624C36.8353 230.619 23.6897 216.078 14.383 196.999C5.07633 177.688 0.423 154.421 0.423 127.199C0.423 100.675 5.19267 77.8737 14.732 58.795C24.2713 39.7163 37.5333 25.1747 54.518 15.17C71.5027 5.16532 91.0467 0.162979 113.15 0.162979ZM301.46 0.162979C336.593 0.162979 363.931 11.331 383.475 33.667C403.019 56.003 412.791 87.2967 412.791 127.548C412.791 153.839 408.37 176.641 399.529 195.952C390.92 215.031 378.24 229.689 361.488 239.926C344.736 250.163 324.727 255.282 301.46 255.282C266.327 255.282 238.989 244.114 219.445 221.778C200.134 199.442 190.478 168.032 190.478 127.548C190.478 101.257 194.782 78.5717 203.391 59.493C212.232 40.4143 224.913 25.7563 241.432 15.519C258.184 5.28165 278.193 0.162979 301.46 0.162979ZM301.46 46.58C286.337 46.58 275.169 52.862 267.956 65.426C260.976 77.99 257.486 98.6973 257.486 127.548C257.486 156.399 261.092 177.222 268.305 190.019C275.518 202.583 286.569 208.865 301.46 208.865C316.816 208.865 327.984 202.583 334.964 190.019C341.944 177.455 345.434 156.631 345.434 127.548C345.434 98.6973 341.944 77.99 334.964 65.426C327.984 52.862 316.816 46.58 301.46 46.58ZM627.227 249H545.91L484.486 66.473L485.533 73.802C487.86 89.856 489.605 104.979 490.768 119.172C492.164 133.132 492.862 149.07 492.862 166.985V249H435.626V6.44498H515.198L578.716 189.67C575.924 172.22 573.714 156.515 572.085 142.555C570.689 128.595 569.991 112.541 569.991 94.393V6.44498H627.227V249ZM832.518 6.44498L825.887 55.654H768.651V249H704.086V55.654H643.36V6.44498H832.518ZM955.391 249L944.572 199.442H880.356L869.537 249H802.529L874.423 6.44498H951.901L1023.79 249H955.391ZM890.477 153.374H934.451L912.464 52.513L890.477 153.374ZM1130.57 0.162979C1145.92 0.162979 1159.77 2.48965 1172.1 7.14299C1184.43 11.7963 1195.95 18.66 1206.65 27.734L1176.29 63.681C1169.07 58.3297 1162.09 54.258 1155.35 51.466C1148.6 48.674 1141.39 47.278 1133.71 47.278C1118.35 47.278 1106.37 53.909 1097.76 67.171C1089.15 80.433 1084.85 100.442 1084.85 127.199C1084.85 153.956 1089.15 173.849 1097.76 186.878C1106.6 199.907 1118.82 206.422 1134.41 206.422C1142.78 206.422 1150.46 204.793 1157.44 201.536C1164.65 198.046 1172.45 193.044 1180.82 186.529L1209.44 222.825C1199.9 232.364 1188.38 240.159 1174.89 246.208C1161.63 252.257 1147.2 255.282 1131.61 255.282C1108.58 255.282 1088.45 250.396 1071.24 240.624C1054.25 230.619 1041.11 216.078 1031.8 196.999C1022.49 177.688 1017.84 154.421 1017.84 127.199C1017.84 100.675 1022.61 77.8737 1032.15 58.795C1041.69 39.7163 1054.95 25.1747 1071.93 15.17C1088.92 5.16532 1108.46 0.162979 1130.57 0.162979ZM1393.48 6.44498L1386.85 55.654H1329.61V249H1265.05V55.654H1204.32V6.44498H1393.48ZM1483.29 0.162979C1501.67 0.162979 1517.84 2.83865 1531.8 8.18998C1546 13.5413 1558.68 21.5683 1569.85 32.271L1540.88 66.473C1524.13 53.211 1506.56 46.58 1488.18 46.58C1478.64 46.58 1471.31 48.4413 1466.19 52.164C1461.31 55.654 1458.86 60.6563 1458.86 67.171C1458.86 71.8243 1460.14 75.6633 1462.7 78.688C1465.26 81.7127 1469.57 84.621 1475.62 87.413C1481.67 90.205 1491.2 93.695 1504.23 97.883C1529.13 105.794 1547.28 115.798 1558.68 127.897C1570.31 139.763 1576.13 156.282 1576.13 177.455C1576.13 192.811 1572.17 206.422 1564.26 218.288C1556.35 229.921 1544.83 238.995 1529.71 245.51C1514.82 252.025 1497.25 255.282 1477.01 255.282C1438.39 255.282 1406.86 243.532 1382.43 220.033L1414.19 184.784C1433.5 200.605 1453.63 208.516 1474.57 208.516C1485.5 208.516 1494 206.189 1500.05 201.536C1506.1 196.65 1509.12 190.252 1509.12 182.341C1509.12 176.757 1507.96 172.22 1505.63 168.73C1503.3 165.007 1499.12 161.75 1493.07 158.958C1487.25 155.933 1478.64 152.676 1467.24 149.186C1439.79 140.577 1420.47 130.224 1409.31 118.125C1398.14 106.026 1392.55 90.7867 1392.55 72.406C1392.55 57.9807 1396.39 45.3003 1404.07 34.365C1411.98 23.4297 1422.8 15.0536 1436.53 9.23699C1450.49 3.18765 1466.08 0.162979 1483.29 0.162979Z" fill="white" fill-opacity="0.1"/>
</svg>
