<svg width="884" height="256" viewBox="0 0 884 256" fill="none" xmlns="http://www.w3.org/2000/svg">
<path d="M129.627 249V148.139H65.411V249H0.846V6.44498H65.411V98.232H129.627V6.44498H194.192V249H129.627ZM327.905 0.162979C363.038 0.162979 390.376 11.331 409.92 33.667C429.464 56.003 439.236 87.2967 439.236 127.548C439.236 153.839 434.816 176.641 425.974 195.952C417.366 215.031 404.685 229.689 387.933 239.926C371.181 250.163 351.172 255.282 327.905 255.282C292.773 255.282 265.434 244.114 245.89 221.778C226.579 199.442 216.923 168.032 216.923 127.548C216.923 101.257 221.228 78.5717 229.836 59.493C238.678 40.4143 251.358 25.7563 267.877 15.519C284.629 5.28165 304.639 0.162979 327.905 0.162979ZM327.905 46.58C312.782 46.58 301.614 52.862 294.401 65.426C287.421 77.99 283.931 98.6973 283.931 127.548C283.931 156.399 287.538 177.222 294.75 190.019C301.963 202.583 313.015 208.865 327.905 208.865C343.261 208.865 354.429 202.583 361.409 190.019C368.389 177.455 371.879 156.631 371.879 127.548C371.879 98.6973 368.389 77.99 361.409 65.426C354.429 52.862 343.261 46.58 327.905 46.58ZM707.143 249H643.625L640.484 158.609L640.135 143.602C639.67 129.642 639.437 119.056 639.437 111.843C639.437 94.393 640.135 76.943 641.531 59.493L608.376 223.872H547.301L512.052 59.493C514.146 86.715 515.193 110.68 515.193 131.387C515.193 143.253 515.077 152.327 514.844 158.609L512.052 249H448.534L466.333 6.44498H546.603L579.06 167.334L608.376 6.44498H688.995L707.143 249ZM883.061 6.44498L876.43 52.164H793.717V103.816H865.96V148.139H793.717V203.281H882.014V249H729.152V6.44498H883.061Z" fill="white" fill-opacity="0.1"/>
</svg>
