<svg width="1712" height="256" viewBox="0 0 1712 256" fill="none" xmlns="http://www.w3.org/2000/svg">
<path d="M83.908 6.44498C116.481 6.44498 141.726 13.3087 159.641 27.036C177.789 40.5307 186.863 60.4237 186.863 86.715C186.863 114.17 178.138 135.11 160.688 149.535C143.238 163.728 119.739 170.824 90.19 170.824H65.411V249H0.846V6.44498H83.908ZM84.257 124.756C96.3557 124.756 105.43 121.731 111.479 115.682C117.761 109.633 120.902 100.093 120.902 87.064C120.902 63.5647 108.222 51.815 82.861 51.815H65.411V124.756H84.257ZM308.479 0.162979C343.611 0.162979 370.95 11.331 390.494 33.667C410.038 56.003 419.81 87.2967 419.81 127.548C419.81 153.839 415.389 176.641 406.548 195.952C397.939 215.031 385.259 229.689 368.507 239.926C351.755 250.163 331.745 255.282 308.479 255.282C273.346 255.282 246.008 244.114 226.464 221.778C207.152 199.442 197.497 168.032 197.497 127.548C197.497 101.257 201.801 78.5717 210.41 59.493C219.251 40.4143 231.931 25.7563 248.451 15.519C265.203 5.28165 285.212 0.162979 308.479 0.162979ZM308.479 46.58C293.355 46.58 282.187 52.862 274.975 65.426C267.995 77.99 264.505 98.6973 264.505 127.548C264.505 156.399 268.111 177.222 275.324 190.019C282.536 202.583 293.588 208.865 308.479 208.865C323.835 208.865 335.003 202.583 341.983 190.019C348.963 177.455 352.453 156.631 352.453 127.548C352.453 98.6973 348.963 77.99 341.983 65.426C335.003 52.862 323.835 46.58 308.479 46.58ZM525.009 159.656H507.21V249H442.645V6.44498H526.754C560.956 6.44498 586.433 12.6107 603.185 24.942C620.169 37.2733 628.662 56.2357 628.662 81.829C628.662 97.185 625.055 109.982 617.843 120.219C610.863 130.456 599.578 139.647 583.99 147.79L644.367 249H572.473L525.009 159.656ZM507.21 115.682H528.848C551.184 115.682 562.352 104.398 562.352 81.829C562.352 71.359 559.211 63.681 552.929 58.795C546.879 53.909 537.689 51.466 525.358 51.466H507.21V115.682ZM819.769 6.44498L813.138 55.654H755.902V249H691.337V55.654H630.611V6.44498H819.769ZM832.638 249V6.44498H981.661L975.03 52.164H897.203V110.447H965.607V156.166H897.203V249H832.638ZM1092.22 0.162979C1127.35 0.162979 1154.69 11.331 1174.23 33.667C1193.77 56.003 1203.55 87.2967 1203.55 127.548C1203.55 153.839 1199.13 176.641 1190.28 195.952C1181.68 215.031 1169 229.689 1152.24 239.926C1135.49 250.163 1115.48 255.282 1092.22 255.282C1057.08 255.282 1029.74 244.114 1010.2 221.778C990.889 199.442 981.233 168.032 981.233 127.548C981.233 101.257 985.538 78.5717 994.146 59.493C1002.99 40.4143 1015.67 25.7563 1032.19 15.519C1048.94 5.28165 1068.95 0.162979 1092.22 0.162979ZM1092.22 46.58C1077.09 46.58 1065.92 52.862 1058.71 65.426C1051.73 77.99 1048.24 98.6973 1048.24 127.548C1048.24 156.399 1051.85 177.222 1059.06 190.019C1066.27 202.583 1077.32 208.865 1092.22 208.865C1107.57 208.865 1118.74 202.583 1125.72 190.019C1132.7 177.455 1136.19 156.631 1136.19 127.548C1136.19 98.6973 1132.7 77.99 1125.72 65.426C1118.74 52.862 1107.57 46.58 1092.22 46.58ZM1290.95 6.44498V198.744H1384.13L1377.15 249H1226.38V6.44498H1290.95ZM1466.01 6.44498V249H1401.44V6.44498H1466.01ZM1600.01 0.162979C1635.14 0.162979 1662.48 11.331 1682.03 33.667C1701.57 56.003 1711.34 87.2967 1711.34 127.548C1711.34 153.839 1706.92 176.641 1698.08 195.952C1689.47 215.031 1676.79 229.689 1660.04 239.926C1643.29 250.163 1623.28 255.282 1600.01 255.282C1564.88 255.282 1537.54 244.114 1518 221.778C1498.68 199.442 1489.03 168.032 1489.03 127.548C1489.03 101.257 1493.33 78.5717 1501.94 59.493C1510.78 40.4143 1523.46 25.7563 1539.98 15.519C1556.73 5.28165 1576.74 0.162979 1600.01 0.162979ZM1600.01 46.58C1584.89 46.58 1573.72 52.862 1566.51 65.426C1559.53 77.99 1556.04 98.6973 1556.04 127.548C1556.04 156.399 1559.64 177.222 1566.86 190.019C1574.07 202.583 1585.12 208.865 1600.01 208.865C1615.37 208.865 1626.53 202.583 1633.51 190.019C1640.49 177.455 1643.98 156.631 1643.98 127.548C1643.98 98.6973 1640.49 77.99 1633.51 65.426C1626.53 52.862 1615.37 46.58 1600.01 46.58Z" fill="white" fill-opacity="0.1"/>
</svg>
