<svg width="1056" height="256" viewBox="0 0 1056 256" fill="none" xmlns="http://www.w3.org/2000/svg">
<path d="M101.606 0.162979C119.987 0.162979 136.157 2.83865 150.117 8.18998C164.31 13.5413 176.99 21.5683 188.158 32.271L159.191 66.473C142.439 53.211 124.873 46.58 106.492 46.58C96.9527 46.58 89.6237 48.4413 84.505 52.164C79.619 55.654 77.176 60.6563 77.176 67.171C77.176 71.8243 78.4557 75.6633 81.015 78.688C83.5743 81.7127 87.8787 84.621 93.928 87.413C99.9773 90.205 109.517 93.695 122.546 97.883C147.441 105.794 165.589 115.798 176.99 127.897C188.623 139.763 194.44 156.282 194.44 177.455C194.44 192.811 190.485 206.422 182.574 218.288C174.663 229.921 163.146 238.995 148.023 245.51C133.132 252.025 115.566 255.282 95.324 255.282C56.7013 255.282 25.175 243.532 0.745 220.033L32.504 184.784C51.8153 200.605 71.941 208.516 92.881 208.516C103.816 208.516 112.309 206.189 118.358 201.536C124.407 196.65 127.432 190.252 127.432 182.341C127.432 176.757 126.269 172.22 123.942 168.73C121.615 165.007 117.427 161.75 111.378 158.958C105.561 155.933 96.9527 152.676 85.552 149.186C58.0973 140.577 38.786 130.224 27.618 118.125C16.45 106.026 10.866 90.7867 10.866 72.406C10.866 57.9807 14.705 45.3003 22.383 34.365C30.2937 23.4297 41.1127 15.0536 54.84 9.23699C68.8 3.18765 84.3887 0.162979 101.606 0.162979ZM279.623 6.44498V249H215.058V6.44498H279.623ZM420.968 6.44498L348.027 114.635L427.25 249H353.262L281.717 119.87L353.611 6.44498H420.968ZM500.011 6.44498V249H435.446V6.44498H500.011ZM597.022 6.44498V198.744H690.205L683.225 249H532.457V6.44498H597.022ZM772.081 6.44498V198.744H865.264L858.284 249H707.516V6.44498H772.081ZM962.586 0.162979C980.967 0.162979 997.137 2.83865 1011.1 8.18998C1025.29 13.5413 1037.97 21.5683 1049.14 32.271L1020.17 66.473C1003.42 53.211 985.853 46.58 967.472 46.58C957.933 46.58 950.604 48.4413 945.485 52.164C940.599 55.654 938.156 60.6563 938.156 67.171C938.156 71.8243 939.436 75.6633 941.995 78.688C944.555 81.7127 948.859 84.621 954.908 87.413C960.958 90.205 970.497 93.695 983.526 97.883C1008.42 105.794 1026.57 115.798 1037.97 127.897C1049.6 139.763 1055.42 156.282 1055.42 177.455C1055.42 192.811 1051.46 206.422 1043.55 218.288C1035.64 229.921 1024.13 238.995 1009 245.51C994.113 252.025 976.546 255.282 956.304 255.282C917.682 255.282 886.155 243.532 861.725 220.033L893.484 184.784C912.796 200.605 932.921 208.516 953.861 208.516C964.797 208.516 973.289 206.189 979.338 201.536C985.388 196.65 988.412 190.252 988.412 182.341C988.412 176.757 987.249 172.22 984.922 168.73C982.596 165.007 978.408 161.75 972.358 158.958C966.542 155.933 957.933 152.676 946.532 149.186C919.078 140.577 899.766 130.224 888.598 118.125C877.43 106.026 871.846 90.7867 871.846 72.406C871.846 57.9807 875.685 45.3003 883.363 34.365C891.274 23.4297 902.093 15.0536 915.82 9.23699C929.78 3.18765 945.369 0.162979 962.586 0.162979Z" fill="white" fill-opacity="0.1"/>
</svg>
